<svg width="38" height="38" viewBox="0 0 38 38" fill="none" xmlns="http://www.w3.org/2000/svg">
<g id="material-symbols:arrow-back-ios-new-rounded">
<path id="Vector" d="M23.9479 33.4085L10.6083 20.1085C10.45 19.9501 10.3375 19.7786 10.271 19.5939C10.2045 19.4092 10.1718 19.2112 10.1729 19.0001C10.1729 18.789 10.2056 18.5911 10.271 18.4064C10.3365 18.2217 10.4489 18.0501 10.6083 17.8918L23.9479 4.55221C24.3173 4.18277 24.7791 3.99805 25.3333 3.99805C25.8875 3.99805 26.3625 4.19596 26.7583 4.5918C27.1541 4.98763 27.352 5.44944 27.352 5.97721C27.352 6.50499 27.1541 6.9668 26.7583 7.36263L15.1208 19.0001L26.7583 30.6376C27.1277 31.0071 27.3125 31.4625 27.3125 32.004C27.3125 32.5455 27.1145 33.0137 26.7187 33.4085C26.3229 33.8043 25.8611 34.0022 25.3333 34.0022C24.8055 34.0022 24.3437 33.8043 23.9479 33.4085Z" fill="black"/>
</g>
</svg>
