<svg width="30" height="30" viewBox="0 0 30 30" fill="none" xmlns="http://www.w3.org/2000/svg">
<path d="M24.402 21.6027C25.1973 21.6015 25.9597 21.285 26.5221 20.7227C27.0844 20.1603 27.4009 19.3979 27.402 18.6027C27.2373 14.6214 21.564 14.6223 21.3999 18.6027C21.4011 19.3983 21.7179 20.161 22.2807 20.7234C22.8435 21.2858 23.6064 21.602 24.402 21.6027ZM24.402 16.5C24.9587 16.5009 25.4923 16.7225 25.8859 17.1161C26.2795 17.5097 26.5011 18.0433 26.502 18.6C26.4033 21.3804 22.398 21.3798 22.2999 18.6C22.3009 18.0429 22.5227 17.509 22.9168 17.1154C23.3109 16.7217 23.845 16.5004 24.402 16.5ZM15.6729 7.24316C15.6718 6.44786 15.3554 5.68544 14.793 5.12307C14.2307 4.5607 13.4683 4.24428 12.6729 4.24316C8.69195 4.40786 8.69315 10.0809 12.6729 10.245C13.4686 10.2439 14.2313 9.92718 14.7937 9.36442C15.3561 8.80166 15.6723 8.03878 15.6729 7.24316ZM10.5708 7.24316C10.5717 6.68648 10.7932 6.15284 11.1869 5.7592C11.5805 5.36557 12.1142 5.14404 12.6708 5.14316C15.4518 5.24156 15.4512 9.24686 12.6708 9.34496C12.1138 9.34409 11.5799 9.12231 11.1863 8.72829C10.7926 8.33426 10.5712 7.80016 10.5708 7.24316ZM16.9047 17.5362C16.9476 17.4954 16.9819 17.4466 17.0059 17.3926C17.0298 17.3386 17.0429 17.2803 17.0444 17.2212C17.0458 17.1622 17.0356 17.1034 17.0143 17.0482C16.993 16.9931 16.9611 16.9427 16.9203 16.8999L11.211 10.8999C10.8711 10.5491 10.452 10.2849 9.98881 10.1296C9.52566 9.97425 9.03201 9.93228 8.54929 10.0072C8.06656 10.0821 7.60885 10.2717 7.21456 10.5601C6.82026 10.8485 6.50089 11.2272 6.28325 11.6646L3.51215 17.3613C3.45991 17.4687 3.45249 17.5924 3.4915 17.7053C3.53052 17.8182 3.61278 17.911 3.7202 17.9632C3.82761 18.0154 3.95137 18.0229 4.06426 17.9839C4.17715 17.9448 4.26991 17.8626 4.32215 17.7552L7.09265 12.06C7.24316 11.7496 7.46664 11.4803 7.74395 11.2752C8.02126 11.0701 8.34415 10.9352 8.68497 10.8821C9.02579 10.8291 9.3744 10.8594 9.70095 10.9704C10.0275 11.0815 10.3223 11.2701 10.56 11.52L16.2696 17.52C16.3518 17.6061 16.4648 17.6562 16.5838 17.6593C16.7029 17.6623 16.8183 17.618 16.9047 17.5362Z" fill="white"/>
<path d="M10.4353 14.761C10.3509 14.8454 10.3035 14.9599 10.3035 15.0792C10.3035 15.1985 10.3509 15.313 10.4353 15.3973L12.9139 17.8759C12.9554 17.9189 13.0051 17.9532 13.06 17.9768C13.1149 18.0004 13.1739 18.0128 13.2337 18.0133C13.2934 18.0138 13.3527 18.0024 13.408 17.9798C13.4633 17.9572 13.5135 17.9238 13.5558 17.8815C13.598 17.8393 13.6314 17.789 13.6541 17.7337C13.6767 17.6784 13.6881 17.6192 13.6876 17.5594C13.687 17.4997 13.6746 17.4406 13.651 17.3857C13.6275 17.3308 13.5932 17.2811 13.5502 17.2396L11.0704 14.761C10.9861 14.677 10.8719 14.6299 10.7528 14.6299C10.6338 14.6299 10.5196 14.677 10.4353 14.761ZM26.7118 22.4803H22.2904L18.9166 19.1077C18.7363 18.9265 18.5218 18.7828 18.2856 18.685C18.0494 18.5871 17.7962 18.5371 17.5405 18.5377H2.10039C1.98104 18.5377 1.86658 18.5851 1.78219 18.6695C1.6978 18.7539 1.65039 18.8684 1.65039 18.9877C1.65039 19.1071 1.6978 19.2215 1.78219 19.3059C1.86658 19.3903 1.98104 19.4377 2.10039 19.4377H17.5405C17.6779 19.4374 17.814 19.4643 17.941 19.5169C18.068 19.5695 18.1833 19.6467 18.2803 19.744L21.7843 23.2495C21.8261 23.2914 21.8757 23.3246 21.9303 23.3472C21.9849 23.3699 22.0435 23.3815 22.1026 23.3815H26.7118C26.9051 23.3854 27.0891 23.4649 27.2244 23.603C27.3597 23.7411 27.4355 23.9267 27.4355 24.12C27.4355 24.3133 27.3597 24.4989 27.2244 24.637C27.0891 24.775 26.9051 24.8545 26.7118 24.8584H21.1873L19.3042 22.9753C19.148 22.8183 18.9622 22.6938 18.7575 22.6091C18.5529 22.5243 18.3335 22.481 18.112 22.4815H14.353C14.2336 22.4815 14.1192 22.5289 14.0348 22.6133C13.9504 22.6977 13.903 22.8122 13.903 22.9315C13.903 23.0509 13.9504 23.1653 14.0348 23.2497C14.1192 23.3341 14.2336 23.3815 14.353 23.3815H18.112C18.2153 23.3813 18.3175 23.4015 18.413 23.441C18.5084 23.4805 18.595 23.5385 18.6679 23.6116L20.6827 25.6267C20.7675 25.71 20.8815 25.7568 21.0004 25.7572H26.7118C28.8733 25.69 28.8802 22.5496 26.7118 22.4803Z" fill="white"/>
</svg>
