<svg width="81" height="45" viewBox="0 0 81 45" fill="none" xmlns="http://www.w3.org/2000/svg">
<path d="M39.6756 0.125819C31.061 13.1921 28.9171 27.5178 38.1394 41.022C38.6889 41.8285 39.2763 42.6148 39.8954 43.3559L39.7172 43.2389C39.7564 43.2502 39.7956 43.2628 39.8347 43.2766L39.4128 43.4012C40.4424 41.7593 41.3217 40.0028 42.1529 38.2502C43.5855 35.1827 44.8008 31.9592 45.6763 28.6892C46.3168 26.3616 46.7602 23.9584 47.0761 21.5779C47.1809 20.6519 47.21 19.6793 47.1594 18.752C46.8171 12.9845 44.2033 7.44847 41.2383 2.56167C40.7671 1.79418 40.2453 0.993969 39.7311 0.252896L39.6781 0.177405L39.6516 0.139659C39.6465 0.135884 39.6667 0.140917 39.6743 0.125819H39.6756ZM39.6756 0C39.7438 0.0226474 39.7994 0.113237 39.8474 0.162306C40.124 0.486919 40.4184 0.822855 40.6799 1.15502C43.5994 4.8478 46.0237 8.99227 47.4424 13.4928C48.2674 16.1476 48.7095 18.9232 48.4177 21.7251C47.9515 25.6809 46.9308 29.5599 45.4957 33.269C44.0732 36.9756 42.2717 40.5338 39.9876 43.7912L39.836 44.0026L39.5656 43.9158C39.5543 43.912 39.5442 43.9083 39.5341 43.902L39.3863 43.8265C38.1861 42.2059 37.1616 40.4961 36.2052 38.7459C34.3355 35.2632 32.8082 31.5755 31.8847 27.7292C30.6454 22.5983 30.8968 17.9757 32.4481 12.948C33.7898 8.69157 35.9134 4.67165 38.6687 1.15628C38.9491 0.796433 39.2599 0.431559 39.5644 0.0918477L39.596 0.0578767C39.6162 0.0314547 39.6478 0.0100655 39.6768 0L39.6756 0Z" fill="white"/>
<path d="M34.2662 21.0467C37.2943 26.0946 38.8204 31.9212 39.2866 37.7542C39.4432 39.8529 39.4925 41.949 39.303 44.0552C35.6899 42.6913 32.3333 40.7386 29.247 38.4374C24.9808 35.2013 21.3563 31.0833 19.1405 26.1839C16.3687 20.0288 15.4629 12.9163 16.1767 6.23029L16.2285 5.81006C17.2758 6.24917 18.2865 6.74867 19.2681 7.28591C25.26 10.5912 30.6897 15.1748 34.2649 21.0455L34.2662 21.0467ZM34.2662 21.0467C30.197 14.4047 23.552 9.46761 16.3776 6.56371L16.8071 6.30578C16.7313 7.2532 16.7149 8.23081 16.7263 9.19459C16.8425 15.6629 18.2182 22.2269 21.4321 27.8913C24.9126 33.9633 30.4459 38.6689 36.5376 42.0371C37.3866 42.5001 38.2608 42.9442 39.1375 43.3217L38.7118 43.5758C39.5039 35.9034 38.2444 27.7415 34.2662 21.0455V21.0467Z" fill="white"/>
<path d="M23.427 26.7667C28.2314 25.0644 31.8584 28.1004 34.1879 32.0511C36.4606 35.9326 37.8376 40.2759 38.7169 44.6682L38.3834 44.711C28.5788 45.7729 17.9404 43.5384 10.5272 36.7592C6.11951 32.7607 2.69592 27.7355 0.448478 22.2473L0 21.0923L0.946226 21.8887C7.10996 26.8233 15.746 29.4529 23.4244 26.7667H23.427ZM23.427 26.7667C16.1856 29.3108 8.08524 27.3241 1.7977 23.2551C1.3707 22.9771 0.957595 22.6952 0.541964 22.3756L1.03971 22.0171C2.63655 25.5224 4.80819 28.7949 7.28808 31.7403C10.9959 36.1503 15.7321 39.7286 21.1846 41.6851C26.6206 43.6642 32.5317 44.4644 38.3076 44.092L38.036 44.4518C37.5193 41.2535 36.6779 38.0766 35.4512 35.0708C33.435 30.0908 29.5376 24.6291 23.427 26.7667Z" fill="white"/>
<path d="M45.9349 21.2119C49.15 16.2811 53.7295 12.348 58.7815 9.35979C60.6045 8.29411 62.4717 7.32782 64.4538 6.56787C64.7722 9.90836 64.5928 13.2652 64.0774 16.573C63.1893 22.1946 61.0846 27.7205 57.4652 32.1758C53.1838 37.4866 46.9544 41.5896 40.5544 43.9122L40.1527 44.0506C40.087 42.9207 40.0908 41.7971 40.1426 40.6824C40.4811 33.8693 42.2182 26.9946 45.9349 21.2107V21.2119ZM45.9349 21.2119C41.7419 27.7772 40.2209 35.8937 40.7654 43.5876L40.3434 43.317C41.2315 42.9673 42.1184 42.5521 42.9825 42.1167C48.7622 39.1612 54.0706 35.0394 57.7608 29.6695C61.6998 23.8818 63.5026 16.8611 63.8525 9.92975C63.8955 8.96598 63.9106 7.98962 63.8651 7.03969L64.282 7.30769C57.018 9.98008 50.2162 14.7046 45.9336 21.2119H45.9349Z" fill="white"/>
<path d="M56.5863 27.0885C63.5611 29.9307 73.8028 25.8655 80.0348 22.4067C76.121 31.74 68.67 40.1485 58.7706 43.2172C53.0831 45 47.0003 45.419 41.1069 44.5936L40.7607 44.5383C41.8977 40.2202 43.4845 35.9801 45.8582 32.1803C48.1992 28.4385 51.931 25.054 56.5863 27.0885ZM56.5863 27.0885C51.8982 25.0716 48.275 28.4712 46.0098 32.2735C44.3435 35.0591 43.1863 38.1203 42.2691 41.2217C41.9685 42.2559 41.6905 43.3065 41.4657 44.3495L41.2042 43.9683C48.8384 44.6477 56.8883 43.4424 63.6571 39.7597C69.572 36.4632 74.2639 31.2908 77.7292 25.5384C78.2219 24.708 78.6969 23.8537 79.1062 22.9943L79.5433 23.3932C73.2836 26.3587 63.3046 29.8351 56.5863 27.0897V27.0885Z" fill="white"/>
</svg>
