<svg width="37" height="37" viewBox="0 0 37 37" fill="none" xmlns="http://www.w3.org/2000/svg">
<path d="M21.4738 4.21545C21.2102 3.97363 20.8634 3.84296 20.5057 3.85072C20.1481 3.85847 19.8073 4.00405 19.5544 4.25708L4.25723 19.5566C4.12823 19.6854 4.02589 19.8385 3.95606 20.0069C3.88624 20.1753 3.8503 20.3559 3.8503 20.5382C3.8503 20.7206 3.88624 20.9011 3.95606 21.0696C4.02589 21.238 4.12823 21.391 4.25723 21.5199L6.39861 23.6613C6.40555 23.6613 6.42173 23.6682 6.45411 23.6682C6.52348 23.6682 6.61598 23.6428 6.70386 23.585C7.54902 23.0211 8.56346 22.7676 9.57451 22.8675C10.5856 22.9675 11.5307 23.4147 12.2491 24.1331C12.9675 24.8515 13.4148 25.7967 13.5147 26.8077C13.6147 27.8188 13.3611 28.8332 12.7973 29.6784C12.7465 29.7521 12.7177 29.8387 12.714 29.9281C12.714 29.9582 12.7187 29.9744 12.721 29.9813L14.8115 32.0741C14.9429 32.2058 15.0993 32.3097 15.2717 32.3796C15.444 32.4496 15.6286 32.4842 15.8145 32.4814C16.0005 32.4786 16.184 32.4384 16.3541 32.3633C16.5242 32.2882 16.6775 32.1796 16.8049 32.0441L32.065 15.8288C32.1907 15.695 32.2886 15.5375 32.353 15.3655C32.4173 15.1936 32.4469 15.0106 32.44 14.8271C32.4332 14.6436 32.3899 14.4633 32.3129 14.2967C32.2358 14.13 32.1264 13.9803 31.991 13.8563L29.9422 11.9762H29.9352C29.9024 11.9697 29.8686 11.9697 29.8358 11.9762C29.7053 12.0034 29.5865 12.0705 29.4959 12.1681C29.1094 12.6062 28.6395 12.9627 28.1136 13.217C27.5877 13.4713 27.0164 13.6181 26.4331 13.649C25.8498 13.6798 25.2662 13.5941 24.7164 13.3967C24.1666 13.1993 23.6617 12.8943 23.2313 12.4995C22.8008 12.1047 22.4533 11.628 22.2092 11.0973C21.9652 10.5666 21.8294 9.99253 21.8098 9.40873C21.7902 8.82492 21.8872 8.24308 22.0952 7.69721C22.3031 7.15135 22.6178 6.65243 23.0209 6.22964C23.1098 6.13042 23.1656 6.00593 23.1804 5.87351C23.1844 5.841 23.182 5.80802 23.1735 5.77639V5.76945L21.4738 4.21545ZM18.2479 2.9482C18.8378 2.35827 19.6327 2.01886 20.4669 2.00076C21.301 1.98267 22.1099 2.28728 22.7249 2.85108L24.4199 4.40739C24.9264 4.86989 25.0674 5.5012 25.0212 6.04001C24.9726 6.57189 24.739 7.0922 24.3783 7.48301C24.1525 7.7293 23.9774 8.01765 23.8631 8.33159C23.7487 8.64553 23.6973 8.97893 23.7118 9.31273C23.7263 9.64654 23.8064 9.97422 23.9476 10.2771C24.0887 10.5799 24.2881 10.852 24.5344 11.0778C24.7807 11.3036 25.069 11.4787 25.383 11.593C25.6969 11.7074 26.0303 11.7587 26.3641 11.7443C26.6979 11.7298 27.0256 11.6497 27.3284 11.5085C27.6313 11.3674 27.9034 11.168 28.1292 10.9217C28.4876 10.5286 28.9848 10.2511 29.5097 10.1563C29.8057 10.0968 30.1115 10.1071 30.4029 10.1861C30.6942 10.2652 30.9632 10.4109 31.1886 10.6118L33.2398 12.4919C33.5556 12.7817 33.8107 13.1312 33.9903 13.5204C34.17 13.9095 34.2706 14.3304 34.2863 14.7587C34.302 15.187 34.2325 15.6142 34.0818 16.0154C33.9312 16.4166 33.7023 16.784 33.4086 17.0961L18.1484 33.3113C17.8513 33.6271 17.4938 33.8799 17.0971 34.0549C16.7004 34.2298 16.2726 34.3233 15.839 34.3298C15.4055 34.3362 14.9751 34.2556 14.5734 34.0925C14.1716 33.9295 13.8067 33.6874 13.5003 33.3807L11.4098 31.2902C10.6074 30.4878 10.8016 29.3315 11.2549 28.654C11.58 28.1647 11.7259 27.578 11.6676 26.9935C11.6093 26.4089 11.3505 25.8626 10.9351 25.4472C10.5197 25.0318 9.97333 24.773 9.38879 24.7147C8.80424 24.6564 8.21753 24.8022 7.7283 25.1274C7.04611 25.5783 5.89217 25.7726 5.08973 24.9678L2.94836 22.8265C2.64769 22.5258 2.40919 22.1689 2.24647 21.7761C2.08375 21.3833 2 20.9623 2 20.5371C2 20.1119 2.08375 19.6909 2.24647 19.2981C2.40919 18.9053 2.64769 18.5483 2.94836 18.2477L18.2479 2.9482Z" fill="white"/>
</svg>
