<svg width="336" height="336" viewBox="0 0 336 336" fill="none" xmlns="http://www.w3.org/2000/svg">
<rect width="336" height="336" fill="#27382E"/>
<path d="M173.145 38.3658C148.099 76.3542 141.866 118.004 168.679 157.266C170.277 159.611 171.984 161.897 173.784 164.051L173.266 163.711C173.38 163.744 173.494 163.781 173.608 163.821L172.381 164.183C175.375 159.409 177.931 154.303 180.348 149.207C184.513 140.289 188.046 130.917 190.591 121.41C192.454 114.643 193.743 107.656 194.661 100.735C194.966 98.0426 195.05 95.2149 194.903 92.519C193.908 75.7506 186.309 59.6554 177.689 45.4477C176.319 43.2163 174.802 40.8898 173.307 38.7353L173.152 38.5158L173.075 38.406C173.061 38.3951 173.119 38.4097 173.141 38.3658H173.145ZM173.145 38C173.343 38.0658 173.505 38.3292 173.645 38.4719C174.449 39.4156 175.305 40.3923 176.065 41.3581C184.553 52.0943 191.602 64.1438 195.726 77.2285C198.125 84.9469 199.41 93.0165 198.562 101.163C197.206 112.664 194.239 123.941 190.066 134.725C185.931 145.502 180.693 155.846 174.052 165.317L173.612 165.932L172.826 165.679C172.793 165.668 172.763 165.657 172.734 165.639L172.304 165.419C168.815 160.708 165.836 155.737 163.056 150.648C157.62 140.523 153.179 129.801 150.494 118.619C146.891 103.701 147.622 90.262 152.132 75.6446C156.033 63.2695 162.207 51.5822 170.218 41.3617C171.033 40.3155 171.937 39.2547 172.822 38.267L172.914 38.1683C172.972 38.0915 173.064 38.0293 173.149 38L173.145 38Z" fill="white"/>
<path d="M157.418 99.1911C166.222 113.867 170.658 130.807 172.014 147.766C172.469 153.867 172.612 159.962 172.061 166.085C161.557 162.12 151.798 156.443 142.825 149.752C130.422 140.344 119.884 128.371 113.442 114.127C105.383 96.2317 102.75 75.553 104.825 56.1144L104.976 54.8926C108.02 56.1692 110.959 57.6215 113.813 59.1834C131.233 68.793 147.019 82.1191 157.414 99.1874L157.418 99.1911ZM157.418 99.1911C145.587 79.8804 126.267 65.5264 105.409 57.0837L106.658 56.3338C106.437 59.0883 106.39 61.9306 106.423 64.7326C106.761 83.5384 110.76 102.622 120.104 119.091C130.223 136.744 146.311 150.425 164.021 160.218C166.49 161.564 169.031 162.855 171.58 163.952L170.343 164.691C172.645 142.385 168.984 118.655 157.418 99.1874V99.1911Z" fill="white"/>
<path d="M125.904 115.819C139.872 110.87 150.417 119.696 157.19 131.183C163.797 142.468 167.801 155.095 170.357 167.865L169.387 167.989C140.882 171.077 109.952 164.58 88.3994 144.871C75.5846 133.246 65.631 118.636 59.0969 102.679L57.793 99.3213L60.544 101.637C78.4642 115.984 103.572 123.629 125.896 115.819H125.904ZM125.904 115.819C104.85 123.215 81.2997 117.439 63.0195 105.609C61.7781 104.801 60.577 103.982 59.3687 103.052L60.8158 102.01C65.4584 112.201 71.7721 121.716 78.9821 130.279C89.7621 143.1 103.532 153.504 119.384 159.192C135.189 164.946 152.374 167.272 169.167 166.19L168.377 167.236C166.875 157.937 164.429 148.701 160.863 139.962C155.001 125.483 143.67 109.604 125.904 115.819Z" fill="white"/>
<path d="M191.344 99.6713C200.692 85.3355 214.006 73.9006 228.694 65.2128C233.994 62.1145 239.423 59.3051 245.186 57.0957C246.111 66.8077 245.59 76.5673 244.091 86.1842C241.509 102.528 235.39 118.594 224.867 131.547C212.42 146.988 194.309 158.916 175.701 165.669L174.534 166.071C174.343 162.787 174.354 159.52 174.504 156.279C175.488 136.471 180.539 116.483 191.344 99.6676V99.6713ZM191.344 99.6713C179.154 118.759 174.732 142.357 176.315 164.725L175.088 163.939C177.67 162.922 180.249 161.715 182.761 160.449C199.564 151.856 214.998 139.873 225.727 124.26C237.179 107.434 242.42 87.0219 243.438 66.8699C243.562 64.0679 243.606 61.2293 243.474 58.4675L244.686 59.2466C223.567 67.0162 203.792 80.752 191.341 99.6713H191.344Z" fill="white"/>
<path d="M222.31 116.757C242.589 125.02 272.365 113.201 290.484 103.146C279.105 130.281 257.442 154.727 228.661 163.649C212.125 168.832 194.44 170.05 177.306 167.651L176.3 167.49C179.605 154.936 184.219 142.608 191.12 131.561C197.926 120.682 208.776 110.842 222.31 116.757ZM222.31 116.757C208.68 110.893 198.146 120.777 191.561 131.832C186.716 139.93 183.352 148.83 180.685 157.847C179.811 160.854 179.003 163.909 178.349 166.941L177.589 165.833C199.784 167.808 223.188 164.304 242.868 153.597C260.064 144.013 273.706 128.975 283.781 112.25C285.213 109.836 286.594 107.352 287.784 104.854L289.055 106.013C270.856 114.635 241.843 124.742 222.31 116.761V116.757Z" fill="white"/>
<path d="M75.6969 262.56C75.0035 262.56 74.4302 262.533 73.9769 262.48C73.5502 262.427 73.1235 262.36 72.6969 262.28C72.2702 262.2 71.7502 262.133 71.1369 262.08C70.5235 262.027 69.6835 262 68.6169 262L67.2169 251.6H67.6969C68.0969 254.88 69.0035 257.413 70.4169 259.2C71.8569 260.96 73.6969 261.84 75.9369 261.84C77.5902 261.84 78.9369 261.373 79.9769 260.44C81.0169 259.507 81.5369 258.293 81.5369 256.8C81.5369 256.16 81.4169 255.547 81.1769 254.96C80.9635 254.373 80.5902 253.747 80.0569 253.08C79.5235 252.413 78.8169 251.693 77.9369 250.92C77.0569 250.12 75.9635 249.227 74.6569 248.24L73.0169 247C71.0169 245.48 69.6302 244.12 68.8569 242.92C68.0835 241.72 67.6969 240.413 67.6969 239C67.6969 236.653 68.5502 234.813 70.2569 233.48C71.9902 232.12 74.2702 231.44 77.0969 231.44C77.7902 231.44 78.3502 231.467 78.7769 231.52C79.2302 231.573 79.6569 231.64 80.0569 231.72C80.4835 231.8 80.9769 231.867 81.5369 231.92C82.0969 231.973 82.8169 232 83.6969 232L84.0969 240.08H83.6969C83.3235 237.6 82.5235 235.64 81.2969 234.2C80.0702 232.76 78.5902 232.04 76.8569 232.04C75.6302 232.04 74.6435 232.4 73.8969 233.12C73.1769 233.84 72.8169 234.8 72.8169 236C72.8169 237.04 73.1502 238.04 73.8169 239C74.5102 239.933 75.6969 241.027 77.3769 242.28L79.0969 243.56C80.8569 244.84 82.2435 246.027 83.2569 247.12C84.2969 248.187 85.0435 249.227 85.4969 250.24C85.9502 251.253 86.1769 252.333 86.1769 253.48C86.1769 255.24 85.7369 256.8 84.8569 258.16C83.9769 259.52 82.7502 260.587 81.1769 261.36C79.6302 262.107 77.8035 262.507 75.6969 262.56ZM97.4475 262.48C95.6075 262.48 93.9675 262.027 92.5275 261.12C91.1142 260.213 90.0075 258.96 89.2075 257.36C88.4075 255.733 88.0075 253.88 88.0075 251.8C88.0075 249.667 88.4475 247.8 89.3275 246.2C90.2075 244.6 91.4075 243.36 92.9275 242.48C94.4742 241.573 96.2208 241.12 98.1675 241.12C99.7942 241.12 101.234 241.44 102.488 242.08C103.768 242.72 104.781 243.627 105.528 244.8C106.301 245.947 106.741 247.28 106.848 248.8L106.887 249.4H93.4475V249.6C93.4475 252.427 94.0742 254.693 95.3275 256.4C96.5808 258.08 98.2608 258.92 100.368 258.92C101.648 258.92 102.861 258.613 104.008 258C105.181 257.36 106.128 256.507 106.848 255.44L107.208 255.56C106.754 256.92 106.048 258.12 105.088 259.16C104.128 260.2 102.994 261.013 101.688 261.6C100.381 262.187 98.9675 262.48 97.4475 262.48ZM93.4875 248.8H101.608C101.608 246.693 101.261 244.987 100.568 243.68C99.9008 242.373 98.9542 241.72 97.7275 241.72C96.5542 241.72 95.5808 242.36 94.8075 243.64C94.0342 244.92 93.5942 246.64 93.4875 248.8ZM107.396 262V261.6H107.436C108.396 261.6 109.17 261.307 109.756 260.72C110.343 260.133 110.636 259.36 110.636 258.4V245.28C110.636 244.267 110.423 243.48 109.996 242.92C109.596 242.36 108.73 242.08 107.396 242.08V241.68H111.356C112.77 241.68 113.836 241.547 114.556 241.28C115.276 240.987 115.783 240.613 116.076 240.16H116.276L116.316 246.72C116.663 245.92 117.103 245.08 117.636 244.2C118.196 243.32 118.89 242.587 119.716 242C120.57 241.387 121.583 241.08 122.756 241.08C123.156 241.08 123.583 241.12 124.036 241.2C124.49 241.28 124.97 241.427 125.476 241.64L123.916 246.32C122.956 245.787 122.116 245.413 121.396 245.2C120.703 244.987 120.09 244.88 119.556 244.88C118.65 244.88 117.97 245.16 117.516 245.72C117.09 246.28 116.716 246.947 116.396 247.72V258.4C116.396 259.36 116.69 260.133 117.276 260.72C117.863 261.307 118.636 261.6 119.596 261.6H119.636V262H107.396ZM134.635 262.48C132.795 262.48 131.155 262.027 129.715 261.12C128.302 260.213 127.195 258.96 126.395 257.36C125.595 255.733 125.195 253.88 125.195 251.8C125.195 249.667 125.635 247.8 126.515 246.2C127.395 244.6 128.595 243.36 130.115 242.48C131.662 241.573 133.408 241.12 135.355 241.12C136.982 241.12 138.422 241.44 139.675 242.08C140.955 242.72 141.968 243.627 142.715 244.8C143.488 245.947 143.928 247.28 144.035 248.8L144.075 249.4H130.635V249.6C130.635 252.427 131.262 254.693 132.515 256.4C133.768 258.08 135.448 258.92 137.555 258.92C138.835 258.92 140.048 258.613 141.195 258C142.368 257.36 143.315 256.507 144.035 255.44L144.395 255.56C143.942 256.92 143.235 258.12 142.275 259.16C141.315 260.2 140.182 261.013 138.875 261.6C137.568 262.187 136.155 262.48 134.635 262.48ZM130.675 248.8H138.795C138.795 246.693 138.448 244.987 137.755 243.68C137.088 242.373 136.142 241.72 134.915 241.72C133.742 241.72 132.768 242.36 131.995 243.64C131.222 244.92 130.782 246.64 130.675 248.8ZM144.584 262V261.6H144.624C145.584 261.6 146.357 261.307 146.944 260.72C147.53 260.133 147.824 259.36 147.824 258.4V245.28C147.824 244.267 147.61 243.48 147.184 242.92C146.784 242.36 145.917 242.08 144.584 242.08V241.68H148.544C149.904 241.68 150.944 241.533 151.664 241.24C152.33 240.947 152.797 240.587 153.064 240.16H153.464L153.504 245.76C154.197 244.373 155.25 243.253 156.664 242.4C158.077 241.547 159.57 241.12 161.144 241.12C162.93 241.12 164.357 241.707 165.424 242.88C166.517 244.053 167.064 245.6 167.064 247.52V258.4C167.064 259.36 167.357 260.133 167.944 260.72C168.53 261.307 169.304 261.6 170.264 261.6H170.304V262H158.104V261.6H158.144C159.104 261.6 159.877 261.307 160.464 260.72C161.05 260.133 161.344 259.36 161.344 258.4V247.12C161.344 245.787 161.077 244.72 160.544 243.92C160.037 243.12 159.357 242.72 158.504 242.72C157.677 242.72 156.81 243.08 155.904 243.8C155.024 244.493 154.25 245.44 153.584 246.64V258.4C153.584 259.36 153.877 260.133 154.464 260.72C155.05 261.307 155.824 261.6 156.784 261.6H156.824V262H144.584ZM169.858 262V261.6H169.898C170.858 261.6 171.631 261.307 172.218 260.72C172.805 260.133 173.098 259.36 173.098 258.4V245.28C173.098 244.267 172.885 243.48 172.458 242.92C172.058 242.36 171.191 242.08 169.858 242.08V241.68H173.938C175.298 241.68 176.338 241.533 177.058 241.24C177.725 240.947 178.191 240.587 178.458 240.16H178.858V258.4C178.858 259.36 179.151 260.133 179.738 260.72C180.325 261.307 181.098 261.6 182.058 261.6H182.098V262H169.858ZM175.938 237.64C174.978 237.64 174.178 237.333 173.538 236.72C172.925 236.08 172.618 235.28 172.618 234.32C172.618 233.36 172.925 232.573 173.538 231.96C174.178 231.32 174.978 231 175.938 231C176.871 231 177.645 231.32 178.258 231.96C178.898 232.6 179.218 233.387 179.218 234.32C179.218 235.253 178.898 236.04 178.258 236.68C177.645 237.32 176.871 237.64 175.938 237.64ZM189.547 262.56C188.161 262.56 187.027 262.12 186.147 261.24C185.267 260.36 184.827 259.213 184.827 257.8V242.4H181.427V241.88C183.267 241.747 184.907 241.16 186.347 240.12C187.814 239.08 189.014 237.68 189.947 235.92H190.587V241.68H195.907L195.507 242.4H190.587V256.92C190.587 259.053 191.307 260.12 192.747 260.12C193.227 260.12 193.774 259.973 194.387 259.68C195.027 259.387 195.627 259 196.187 258.52V258.92C195.307 260.04 194.267 260.933 193.067 261.6C191.867 262.24 190.694 262.56 189.547 262.56ZM197.207 270.96C196.113 270.96 195.06 270.747 194.047 270.32L195.607 265.64C196.273 265.907 196.993 266.133 197.767 266.32C198.567 266.507 199.367 266.6 200.167 266.6C201.18 266.6 202.127 266.387 203.007 265.96C203.913 265.56 204.593 264.8 205.047 263.68L205.487 262.6L197.567 244.24C197.3 243.6 196.953 243.093 196.527 242.72C196.073 242.32 195.46 242.107 194.687 242.08V241.68H206.247V242.08C205.527 242.16 204.967 242.413 204.567 242.84C204.193 243.267 204.007 243.813 204.007 244.48C204.007 245.067 204.14 245.667 204.407 246.28L208.447 255.76L212.487 246.28C212.753 245.667 212.887 245.067 212.887 244.48C212.887 243.813 212.687 243.267 212.287 242.84C211.913 242.413 211.353 242.16 210.607 242.08V241.68H216.127V242.08C215.513 242.213 214.993 242.613 214.567 243.28C214.14 243.92 213.687 244.8 213.207 245.92L205.047 264.88C204.193 266.853 203.087 268.36 201.727 269.4C200.367 270.44 198.86 270.96 197.207 270.96ZM214.578 262V261.6H214.618C215.578 261.6 216.351 261.347 216.938 260.84C217.525 260.333 217.818 259.6 217.818 258.64V235.6C217.818 234.64 217.525 233.867 216.938 233.28C216.351 232.693 215.578 232.4 214.618 232.4H214.578V232H227.338V232.4H227.178C226.218 232.4 225.445 232.693 224.858 233.28C224.271 233.867 223.978 234.64 223.978 235.6V258.8C223.978 259.653 224.178 260.32 224.578 260.8C225.005 261.253 225.738 261.48 226.778 261.48H227.618C229.991 261.48 231.991 260.747 233.618 259.28C235.245 257.813 236.271 255.747 236.698 253.08H237.098L235.898 262H214.578ZM243.992 262.56C242.365 262.56 241.058 262.12 240.072 261.24C239.085 260.36 238.592 259.2 238.592 257.76C238.592 257.147 238.698 256.573 238.912 256.04C239.125 255.48 239.525 254.933 240.112 254.4C240.725 253.867 241.565 253.32 242.632 252.76C243.698 252.173 245.112 251.56 246.872 250.92L250.592 249.56V246.56C250.592 245.04 250.352 243.84 249.872 242.96C249.392 242.053 248.725 241.6 247.872 241.6C246.858 241.627 245.992 242.293 245.272 243.6C244.578 244.907 244.112 246.72 243.872 249.04L239.552 246.56C240.005 245.467 240.698 244.507 241.632 243.68C242.565 242.853 243.632 242.213 244.832 241.76C246.058 241.307 247.338 241.08 248.672 241.08C250.938 241.08 252.778 241.72 254.192 243C255.632 244.253 256.352 245.973 256.352 248.16V257.8C256.352 259.347 256.872 260.12 257.912 260.12C258.525 260.12 259.125 259.787 259.712 259.12L260.032 259.4C259.338 260.333 258.498 261.093 257.512 261.68C256.525 262.267 255.565 262.56 254.632 262.56C253.618 262.56 252.738 262.213 251.992 261.52C251.272 260.827 250.818 259.907 250.632 258.76C249.325 260.093 248.178 261.067 247.192 261.68C246.232 262.267 245.165 262.56 243.992 262.56ZM246.992 260.08C247.578 260.08 248.138 259.933 248.672 259.64C249.232 259.347 249.858 258.867 250.552 258.2L250.592 250.08L248.992 250.68C247.632 251.187 246.592 251.707 245.872 252.24C245.152 252.747 244.645 253.32 244.352 253.96C244.085 254.6 243.952 255.333 243.952 256.16C243.952 257.307 244.232 258.253 244.792 259C245.378 259.72 246.112 260.08 246.992 260.08ZM261.223 262.56V235.6C261.223 234.64 260.916 233.867 260.303 233.28C259.716 232.693 258.943 232.4 257.983 232.4V232H262.063C263.636 232 264.716 231.853 265.303 231.56C265.889 231.267 266.316 230.907 266.583 230.48H266.983V245.04C267.596 243.84 268.449 242.88 269.543 242.16C270.663 241.44 271.889 241.08 273.223 241.08C274.796 241.08 276.196 241.547 277.423 242.48C278.649 243.413 279.609 244.68 280.303 246.28C281.023 247.88 281.383 249.707 281.383 251.76C281.383 253.893 280.983 255.773 280.183 257.4C279.409 259.027 278.316 260.293 276.903 261.2C275.489 262.107 273.836 262.56 271.943 262.56C268.769 262.56 266.636 261.24 265.543 258.6L261.623 262.56H261.223ZM270.783 261.88C272.196 261.88 273.263 261 273.983 259.24C274.703 257.48 275.063 254.893 275.063 251.48C275.063 248.493 274.783 246.28 274.223 244.84C273.663 243.4 272.783 242.68 271.583 242.68C270.516 242.68 269.569 243.067 268.743 243.84C267.943 244.613 267.356 245.48 266.983 246.44V256.48C267.089 258.133 267.476 259.453 268.143 260.44C268.809 261.4 269.689 261.88 270.783 261.88Z" fill="white"/>
</svg>
