<svg width="37" height="37" viewBox="0 0 37 37" fill="none" xmlns="http://www.w3.org/2000/svg">
<path fill-rule="evenodd" clip-rule="evenodd" d="M24.6667 21.5835C26.653 21.5836 28.5627 22.3505 29.9974 23.7243C31.4321 25.0982 32.2811 26.9728 32.3673 28.9573L32.375 29.2918V32.3752C32.3746 32.7681 32.2241 33.146 31.9544 33.4318C31.6846 33.7175 31.3159 33.8894 30.9237 33.9125C30.5314 33.9355 30.1452 33.8079 29.8438 33.5557C29.5425 33.3035 29.3489 32.9457 29.3025 32.5555L29.2917 32.3752V29.2918C29.2917 28.1121 28.841 26.977 28.0317 26.1187C27.2224 25.2604 26.1157 24.7437 24.938 24.6745L24.6667 24.6668H12.3333C11.1536 24.6668 10.0185 25.1175 9.16018 25.9268C8.30186 26.7361 7.78525 27.8428 7.71604 29.0205L7.70833 29.2918V32.3752C7.7079 32.7681 7.55744 33.146 7.28769 33.4318C7.01795 33.7175 6.64928 33.8894 6.25702 33.9125C5.86475 33.9355 5.4785 33.8079 5.17717 33.5557C4.87585 33.3035 4.6822 32.9457 4.63579 32.5555L4.625 32.3752V29.2918C4.62511 27.3054 5.39204 25.3958 6.76585 23.9611C8.13966 22.5264 10.0143 21.6774 11.9988 21.5912L12.3333 21.5835H24.6667ZM18.5 3.0835C20.5444 3.0835 22.505 3.89562 23.9506 5.34121C25.3962 6.78681 26.2083 8.74745 26.2083 10.7918C26.2083 12.8362 25.3962 14.7969 23.9506 16.2424C22.505 17.688 20.5444 18.5002 18.5 18.5002C16.4556 18.5002 14.495 17.688 13.0494 16.2424C11.6038 14.7969 10.7917 12.8362 10.7917 10.7918C10.7917 8.74745 11.6038 6.78681 13.0494 5.34121C14.495 3.89562 16.4556 3.0835 18.5 3.0835ZM18.5 6.16683C17.8926 6.16683 17.2912 6.28646 16.7301 6.51889C16.169 6.75131 15.6591 7.09199 15.2296 7.52146C14.8002 7.95093 14.4595 8.46079 14.2271 9.02192C13.9946 9.58305 13.875 10.1845 13.875 10.7918C13.875 11.3992 13.9946 12.0006 14.2271 12.5617C14.4595 13.1229 14.8002 13.6327 15.2296 14.0622C15.6591 14.4917 16.169 14.8323 16.7301 15.0648C17.2912 15.2972 17.8926 15.4168 18.5 15.4168C19.7266 15.4168 20.903 14.9296 21.7704 14.0622C22.6377 13.1948 23.125 12.0185 23.125 10.7918C23.125 9.5652 22.6377 8.38882 21.7704 7.52146C20.903 6.6541 19.7266 6.16683 18.5 6.16683Z" fill="white"/>
</svg>
