<svg width="30" height="30" viewBox="0 0 30 30" fill="none" xmlns="http://www.w3.org/2000/svg">
<path d="M10.56 29.31C12 29.745 13.455 30 15 30C18.9782 30 22.7936 28.4196 25.6066 25.6066C28.4196 22.7936 30 18.9782 30 15C30 13.0302 29.612 11.0796 28.8582 9.25975C28.1044 7.43986 26.9995 5.78628 25.6066 4.3934C24.2137 3.00052 22.5601 1.89563 20.7403 1.14181C18.9204 0.387987 16.9698 0 15 0C13.0302 0 11.0796 0.387987 9.25975 1.14181C7.43986 1.89563 5.78628 3.00052 4.3934 4.3934C1.58035 7.20644 0 11.0218 0 15C0 21.375 4.005 26.85 9.66 29.01C9.525 27.84 9.39 25.905 9.66 24.57L11.385 17.16C11.385 17.16 10.95 16.29 10.95 14.91C10.95 12.84 12.24 11.295 13.71 11.295C15 11.295 15.6 12.24 15.6 13.455C15.6 14.745 14.745 16.59 14.31 18.36C14.055 19.83 15.09 21.12 16.59 21.12C19.26 21.12 21.33 18.27 21.33 14.25C21.33 10.65 18.75 8.19 15.045 8.19C10.815 8.19 8.325 11.34 8.325 14.655C8.325 15.945 8.745 17.25 9.435 18.105C9.57 18.195 9.57 18.315 9.525 18.54L9.09 20.175C9.09 20.43 8.925 20.52 8.67 20.34C6.75 19.5 5.64 16.77 5.64 14.565C5.64 9.825 9 5.52 15.48 5.52C20.64 5.52 24.66 9.225 24.66 14.145C24.66 19.305 21.465 23.445 16.89 23.445C15.435 23.445 14.01 22.665 13.5 21.75L12.495 25.305C12.15 26.595 11.205 28.32 10.56 29.355V29.31Z" fill="black"/>
</svg>
