<svg width="31" height="31" viewBox="0 0 31 31" fill="none" xmlns="http://www.w3.org/2000/svg">
<g id="material-symbols:calendar-month-outline-rounded">
<path id="Vector" d="M6.45834 28.4168C5.74792 28.4168 5.13954 28.1637 4.63321 27.6573C4.12688 27.151 3.87414 26.5431 3.875 25.8335V7.75017C3.875 7.03975 4.12817 6.43138 4.6345 5.92504C5.14084 5.41871 5.74878 5.16597 6.45834 5.16683H7.75V3.87517C7.75 3.5092 7.874 3.20221 8.122 2.95421C8.37 2.70621 8.67656 2.58264 9.04167 2.5835C9.40764 2.5835 9.71463 2.7075 9.96263 2.9555C10.2106 3.2035 10.3342 3.51006 10.3333 3.87517V5.16683H20.6667V3.87517C20.6667 3.5092 20.7907 3.20221 21.0387 2.95421C21.2867 2.70621 21.5932 2.58264 21.9583 2.5835C22.3243 2.5835 22.6313 2.7075 22.8793 2.9555C23.1273 3.2035 23.2509 3.51006 23.25 3.87517V5.16683H24.5417C25.2521 5.16683 25.8605 5.42 26.3668 5.92633C26.8731 6.43267 27.1259 7.04061 27.125 7.75017V25.8335C27.125 26.5439 26.8718 27.1523 26.3655 27.6586C25.8592 28.165 25.2512 28.4177 24.5417 28.4168H6.45834ZM6.45834 25.8335H24.5417V12.9168H6.45834V25.8335ZM6.45834 10.3335H24.5417V7.75017H6.45834V10.3335ZM15.5 18.0835C15.134 18.0835 14.827 17.9595 14.579 17.7115C14.331 17.4635 14.2075 17.1569 14.2083 16.7918C14.2083 16.4259 14.3323 16.1189 14.5803 15.8709C14.8283 15.6229 15.1349 15.4993 15.5 15.5002C15.866 15.5002 16.173 15.6242 16.421 15.8722C16.669 16.1202 16.7925 16.4267 16.7917 16.7918C16.7917 17.1578 16.6677 17.4648 16.4197 17.7128C16.1717 17.9608 15.8651 18.0844 15.5 18.0835ZM10.3333 18.0835C9.96736 18.0835 9.66038 17.9595 9.41238 17.7115C9.16438 17.4635 9.04081 17.1569 9.04167 16.7918C9.04167 16.4259 9.16567 16.1189 9.41367 15.8709C9.66167 15.6229 9.96823 15.4993 10.3333 15.5002C10.6993 15.5002 11.0063 15.6242 11.2543 15.8722C11.5023 16.1202 11.6259 16.4267 11.625 16.7918C11.625 17.1578 11.501 17.4648 11.253 17.7128C11.005 17.9608 10.6984 18.0844 10.3333 18.0835ZM20.6667 18.0835C20.3007 18.0835 19.9937 17.9595 19.7457 17.7115C19.4977 17.4635 19.3741 17.1569 19.375 16.7918C19.375 16.4259 19.499 16.1189 19.747 15.8709C19.995 15.6229 20.3016 15.4993 20.6667 15.5002C21.0326 15.5002 21.3396 15.6242 21.5876 15.8722C21.8356 16.1202 21.9592 16.4267 21.9583 16.7918C21.9583 17.1578 21.8343 17.4648 21.5863 17.7128C21.3383 17.9608 21.0318 18.0844 20.6667 18.0835ZM15.5 23.2502C15.134 23.2502 14.827 23.1262 14.579 22.8782C14.331 22.6302 14.2075 22.3236 14.2083 21.9585C14.2083 21.5925 14.3323 21.2855 14.5803 21.0375C14.8283 20.7895 15.1349 20.666 15.5 20.6668C15.866 20.6668 16.173 20.7908 16.421 21.0388C16.669 21.2868 16.7925 21.5934 16.7917 21.9585C16.7917 22.3245 16.6677 22.6315 16.4197 22.8795C16.1717 23.1275 15.8651 23.251 15.5 23.2502ZM10.3333 23.2502C9.96736 23.2502 9.66038 23.1262 9.41238 22.8782C9.16438 22.6302 9.04081 22.3236 9.04167 21.9585C9.04167 21.5925 9.16567 21.2855 9.41367 21.0375C9.66167 20.7895 9.96823 20.666 10.3333 20.6668C10.6993 20.6668 11.0063 20.7908 11.2543 21.0388C11.5023 21.2868 11.6259 21.5934 11.625 21.9585C11.625 22.3245 11.501 22.6315 11.253 22.8795C11.005 23.1275 10.6984 23.251 10.3333 23.2502ZM20.6667 23.2502C20.3007 23.2502 19.9937 23.1262 19.7457 22.8782C19.4977 22.6302 19.3741 22.3236 19.375 21.9585C19.375 21.5925 19.499 21.2855 19.747 21.0375C19.995 20.7895 20.3016 20.666 20.6667 20.6668C21.0326 20.6668 21.3396 20.7908 21.5876 21.0388C21.8356 21.2868 21.9592 21.5934 21.9583 21.9585C21.9583 22.3245 21.8343 22.6315 21.5863 22.8795C21.3383 23.1275 21.0318 23.251 20.6667 23.2502Z" fill="black"/>
</g>
</svg>
